<?xml version="1.0" encoding="UTF-8" standalone="no"?> <!-- Created with Vectornator for iOS (http://vectornator.io/) --><!DOCTYPE svg PUBLIC "-//W3C//DTD SVG 1.1//EN" "http://www.w3.org/Graphics/SVG/1.1/DTD/svg11.dtd">
<svg style="fill-rule:evenodd;clip-rule:evenodd;stroke-linecap:round;stroke-linejoin:round;" xmlns:vectornator="http://vectornator.io" xmlns:xlink="http://www.w3.org/1999/xlink" xmlns="http://www.w3.org/2000/svg" xml:space="preserve" version="1.1" viewBox="0 0 2560 1440">
<metadata>
<vectornator:setting key="DimensionsVisible" value="1"/>
<vectornator:setting key="SnapToGrid" value="1"/>
<vectornator:setting key="SnapToPoints" value="1"/>
<vectornator:setting key="GuidesVisible" value="1"/>
<vectornator:setting key="RulersVisible" value="1"/>
<vectornator:setting key="SnapToEdges" value="1"/>
<vectornator:setting key="DisplayWhiteBackground" value="0"/>
<vectornator:setting key="SnapToGuides" value="1"/>
<vectornator:setting key="GridSpacing" value="36"/>
<vectornator:setting key="Units" value="Pixels"/>
<vectornator:setting key="DynamicGuides" value="1"/>
<vectornator:setting key="New" value="1"/>
</metadata>
<defs/>
<g id="Layer 2" vectornator:layerName="Layer 2">
<path d="M1300.18+800.795L1300.18+800.795C1304.66+800.795+1308.28+804.42+1308.28+808.892L1308.28+1204.87C1308.28+1209.34+1304.66+1212.96+1300.18+1212.96L1300.18+1212.96C1295.71+1212.96+1292.09+1209.34+1292.09+1204.87L1292.09+808.892C1292.09+804.42+1295.71+800.795+1300.18+800.795Z" opacity="1" fill="#a26d0d"/>
<path d="M1071.47+1148.88C1102.51+1148.89+1453.69+1148.88+1453.69+1148.88L1565.96+1148.88C1585.49+1148.88+1591.21+1161.06+1578.73+1176.08L1535.52+1228.09C1492.76+1272.49+1490.33+1277.04+1453.69+1275.88L1054.73+1277.05C1025.98+1277.05+1030.42+1277.05+1031.19+1212.38C1030.71+1148.88+1031.19+1212.38+1031.19+1212.38C1031.19+1177.31+1025.71+1148.88+1071.47+1148.88Z" opacity="1" fill="#cd8500"/>
<path d="M1334.89+1197.27L1399.99+1197.27C1404.33+1197.27+1407.84+1200.78+1407.84+1205.12L1407.84+1205.12C1407.84+1209.45+1404.33+1212.96+1399.99+1212.96L1334.89+1212.96C1330.55+1212.96+1327.04+1209.45+1327.04+1205.12L1327.04+1205.12C1327.04+1200.78+1330.55+1197.27+1334.89+1197.27Z" opacity="1" fill="#715816"/>
<path d="M1368.03+1211.96L1447.66+1211.96C1451.76+1211.96+1455.09+1215.29+1455.09+1219.39L1455.09+1219.39C1455.09+1223.5+1451.76+1226.82+1447.66+1226.82L1368.03+1226.82C1363.92+1226.82+1360.6+1223.5+1360.6+1219.39L1360.6+1219.39C1360.6+1215.29+1363.92+1211.96+1368.03+1211.96Z" opacity="1" fill="#815b17"/>
<path d="M1095.35+1243.65L1136.77+1243.65C1140.52+1243.65+1143.56+1246.69+1143.56+1250.45L1143.56+1250.45C1143.56+1254.2+1140.52+1257.24+1136.77+1257.24L1095.35+1257.24C1091.59+1257.24+1088.55+1254.2+1088.55+1250.45L1088.55+1250.45C1088.55+1246.69+1091.59+1243.65+1095.35+1243.65Z" opacity="1" fill="#826928"/>
<path d="M1125.92+1227.82L1173.33+1227.82C1178.78+1227.82+1183.19+1231.59+1183.19+1236.24L1183.19+1236.24C1183.19+1240.88+1178.78+1244.65+1173.33+1244.65L1125.92+1244.65C1120.47+1244.65+1116.06+1240.88+1116.06+1236.24L1116.06+1236.24C1116.06+1231.59+1120.47+1227.82+1125.92+1227.82Z" opacity="1" fill="#8a6f2a"/>
<path d="M1095.98+1212.96L1157.49+1212.96C1161.59+1212.96+1164.92+1216.29+1164.92+1220.39L1164.92+1220.39C1164.92+1224.5+1161.59+1227.82+1157.49+1227.82L1095.98+1227.82C1091.88+1227.82+1088.55+1224.5+1088.55+1220.39L1088.55+1220.39C1088.55+1216.29+1091.88+1212.96+1095.98+1212.96Z" opacity="1" fill="#806624"/>
<path d="M1314.62+1225.82L1447.48+1225.82C1451.68+1225.82+1455.09+1229.23+1455.09+1233.43L1455.09+1233.43C1455.09+1237.63+1451.68+1241.03+1447.48+1241.03L1314.62+1241.03C1310.42+1241.03+1307.02+1237.63+1307.02+1233.43L1307.02+1233.43C1307.02+1229.23+1310.42+1225.82+1314.62+1225.82Z" opacity="1" fill="#815b17"/>
<path d="M1288.47+805.595C1261.97+851.732+1240.52+908.602+1182.44+990.143C1124.37+1071.68+1062.3+1132.73+1062.3+1132.73C1062.3+1132.73+1108.44+1126.38+1163.63+1124.87C1218.81+1123.35+1288.35+1144.88+1288.35+1144.88" opacity="1" fill="#e5f6ff"/>
<path d="M1309.51+801.892C1339.04+989.169+1307.84+1141.88+1307.84+1141.88C1307.84+1141.88+1378.61+1120.11+1450.97+1118.95C1523.32+1117.78+1573.22+1131.78+1573.22+1131.78C1573.22+1131.78+1561.52+1067.18+1465.74+945.821" opacity="1" fill="#e5f6ff"/>
</g>
<g id="Layer 1" vectornator:layerName="Layer 1">
<path d="M0+1258.05L2615.82+1258.05L2615.82+1440L0+1440L0+1258.05Z" fill-opacity="0.581387" fill="#51c9f7" opacity="1"/>
</g>
</svg>
